<mxfile host="app.diagrams.net" modified="2022-06-06T07:27:52.716Z" agent="5.0 (Macintosh; Intel Mac OS X 10_15_7) AppleWebKit/537.36 (KHTML, like Gecko) Chrome/101.0.4951.64 Safari/537.36" etag="ghdiEYatIn6qF3LW4MpB" version="19.0.0" type="github">
  <diagram id="2Fby4o3lR7Ye9Jq1ZEuX" name="Page-1">
    <mxGraphModel dx="788" dy="655" grid="1" gridSize="10" guides="1" tooltips="1" connect="1" arrows="1" fold="1" page="1" pageScale="1" pageWidth="1169" pageHeight="827" math="0" shadow="0">
      <root>
        <mxCell id="0" />
        <mxCell id="1" parent="0" />
        <mxCell id="WxpP5CT5e6z0WP_Jkl_Q-49" value="" style="rounded=0;whiteSpace=wrap;html=1;labelBackgroundColor=default;fontSize=12;fillColor=none;" vertex="1" parent="1">
          <mxGeometry x="380" y="520" width="670" height="80" as="geometry" />
        </mxCell>
        <mxCell id="WxpP5CT5e6z0WP_Jkl_Q-47" value="" style="rounded=0;whiteSpace=wrap;html=1;fillColor=none;" vertex="1" parent="1">
          <mxGeometry x="690" y="199.2" width="350" height="280" as="geometry" />
        </mxCell>
        <mxCell id="WxpP5CT5e6z0WP_Jkl_Q-15" value="" style="rounded=0;whiteSpace=wrap;html=1;fillColor=none;" vertex="1" parent="1">
          <mxGeometry x="240" y="200" width="400" height="280" as="geometry" />
        </mxCell>
        <mxCell id="WxpP5CT5e6z0WP_Jkl_Q-1" value="Azure Storage" style="verticalLabelPosition=bottom;html=1;verticalAlign=top;align=center;strokeColor=none;fillColor=#00BEF2;shape=mxgraph.azure.storage_blob;" vertex="1" parent="1">
          <mxGeometry x="722" y="317" width="50" height="45" as="geometry" />
        </mxCell>
        <mxCell id="WxpP5CT5e6z0WP_Jkl_Q-4" value="Azure Databricks" style="aspect=fixed;html=1;points=[];align=center;image;fontSize=12;image=img/lib/azure2/analytics/Azure_Databricks.svg;labelBackgroundColor=none;" vertex="1" parent="1">
          <mxGeometry x="840" y="315" width="39.71" height="45" as="geometry" />
        </mxCell>
        <mxCell id="WxpP5CT5e6z0WP_Jkl_Q-6" value="" style="rounded=0;whiteSpace=wrap;html=1;fillColor=none;labelBackgroundColor=none;" vertex="1" parent="1">
          <mxGeometry x="50" y="200" width="140" height="280" as="geometry" />
        </mxCell>
        <mxCell id="WxpP5CT5e6z0WP_Jkl_Q-7" value="data sources" style="text;html=1;strokeColor=none;fillColor=none;align=center;verticalAlign=middle;whiteSpace=wrap;rounded=0;fontSize=14;" vertex="1" parent="1">
          <mxGeometry x="70" y="170" width="100" height="30" as="geometry" />
        </mxCell>
        <mxCell id="WxpP5CT5e6z0WP_Jkl_Q-8" value="" style="dashed=0;outlineConnect=0;html=1;align=center;labelPosition=center;verticalLabelPosition=bottom;verticalAlign=top;shape=mxgraph.webicons.flickr;gradientColor=#DFDEDE" vertex="1" parent="1">
          <mxGeometry x="69" y="316" width="42.4" height="42.4" as="geometry" />
        </mxCell>
        <mxCell id="WxpP5CT5e6z0WP_Jkl_Q-9" value="" style="sketch=0;html=1;dashed=0;whitespace=wrap;fillColor=#2875E2;strokeColor=#ffffff;points=[[0.005,0.63,0],[0.1,0.2,0],[0.9,0.2,0],[0.5,0,0],[0.995,0.63,0],[0.72,0.99,0],[0.5,1,0],[0.28,0.99,0]];shape=mxgraph.kubernetes.icon;prIcon=api" vertex="1" parent="1">
          <mxGeometry x="111.4" y="315" width="47.6" height="40" as="geometry" />
        </mxCell>
        <mxCell id="WxpP5CT5e6z0WP_Jkl_Q-10" value="Flickr API" style="text;html=1;strokeColor=none;fillColor=none;align=center;verticalAlign=middle;whiteSpace=wrap;rounded=0;" vertex="1" parent="1">
          <mxGeometry x="89" y="355.4" width="60" height="30" as="geometry" />
        </mxCell>
        <mxCell id="WxpP5CT5e6z0WP_Jkl_Q-11" value="TAU Datenset" style="shape=image;verticalLabelPosition=bottom;labelBackgroundColor=default;verticalAlign=top;aspect=fixed;imageAspect=0;image=data:image/png,iVBORw0KGgoAAAANSUhEUgAAAWoAAACLCAMAAAB/aSNCAAAAY1BMVEX///83uugtuOcpt+fz+/7d8/tSw+uL1fG/6Pjt+P1Avuqq3/TU8Pq64/U5vOllye2d2PL3/f7H6vjl9vyi3PN1ze6F0vCV2PJNweqw4PTP7fnh8/tgxOuJ1fHp9vxyy+5+zu87Xl8hAAAPmklEQVR4nO2daYOqOgyGpUVRFBgQWdSj/v9fecGNJmm66BzumZH324xaykOXNE3DbDYLB80mzWb53wKSNyJ4SMQT7FkRDBLRd5Y8l0rRcvmdRf9M/VGAiOY7295cTKiB/ihAxGJC/RcVTajH0oR6NE2oR9OEejRNqEfThHo0TahH04R6NE2oR9OEejRNqEfThHo0TahH04R6NE2oR9OEejRNqEfThHo0TahH04R6NE2oR9OEejRNqEfThHo0TahH04R6NE2oR9OEejRNqEfTj0I9L5btule73OQvlZBv7iUkr5Yw1CW5VSXZOFLzR73dD7U11sUZ9WEOtNKWluxiCRTskoNDdQetlhUsIjgnwx2oNbAUlBdRA+uSlfvnpyeuIC/Uq6JewGvEVXJivuyMeqd+sauFILXYlLGQAn6t+6IUi/XWXONBxTmVmhKa+sajVTlUpoI2VSpwXYSUaXV7bPtg+Exmas9xR50XWSpwbYWQQZZof+aKeocBSNgY8mVGLjvcYlpxjxpouSBP6lFCcOmvV6kcYr6gfcYVJERWdF9Yq8cwArWHuqIOy67PcPcbl5pO74j6jEuVJYR05Djfv56W1kF3k5nKEKJ7XCqHgEUdXowFyWwOUAepP+q8bczXiOn9uqHeYdICkDZDupd9tIzZJdMQhxLiwgn1MrUUJET7Juq5pWX1sBd7/CMX1IQ0aNN5ZAfd/0aYJt2Q9Btd9WP1TwZ17VAbmap/eaNuXW5YSHQUzwW1mXQR2yHdf9aypFeNayGD9KhJZe3yRV05XgLOty6o6ThdKJ8ax0X8w4QhvQ38AelRO3QOIk/UmfMlRKyaXnbUZ2J7qIPQ3OvWpN7GXy3cH9cgHWp3DIr8UGcedRWNwtqKGpcshNqmZycvSEyPfKUpalHXLxXkhdqHNGRtQ40piAB9p9XcnbiLfiJrDenXAGlQF68V5IOa9PHgumzp/6tZv3X/PD7HazPqnJBOC/QVfPHugmmT7aIoOi+6xRS5LWry7fWAuKf1FEEd6q08a0EeqEtaVxks6mLTre83SbSgc47YOaGmpANsLHYDbaxWTjbl/lnzU0EMbnHBv1dzNwzFiHSx69Q9LXYRSlCTFW13R11LuxUU8wW5o94QkjKt1WXzvAzI1LZ2QY0NJyF009rQbaWIcKOdL1AZKfaH0IYiZbR83n1YlMzCDKOmw0e3MEyeIPJNm+mX0s6oSbcRkiwK8xLXVq7sqLH9KKTem3Yfa4WodYtvNBKjFf1sRRaiASlmG+kGAIz6SDhE2PMSljqr0hk1BiIznWvncIRfE8fb/w2oCemY8Rnl/U0KWWn9qrjZigX8NMJt4KwrZrWjLRuhXuLqNrqGEdb0qbmi3uCqMplZckTujpVHfSFVZ12h824cXJD5cigJVhGMMSG+is5E6bWMMSKEGtnm8swUtCFGvCtqZABwpGe4ld6tEBY1adONwV3UNrXBs3sCHgfYdUrz8KJog1lD1AUyhHZMMV0PwaaxI+o9uoIp2xC8xO2WOdSUtLN7n6pWLwLabQ75SZO7f45YQ9To5o4Gny22eRxRw5WoyEx3HIJL3L7LoCakj8xA7KStBEUpn0CbWsRGpzYywAFqPBAZt8PCV1DDkVrEZiCwk4m+OnrUlPR7u6lweFQ+qGBb5Mf7qyJQLYAaLlq1i1JFCfi2G2o4fxu8lDeBgf1aHy1qYk8fjaXaBaoph/+HYEzAxglRyKOG40dqaxng2buhhs3UOHz0mpM706HGpI0Dn5O+wFWGO4N+QWFp1KgTANSwUfOT613+uzBwUmTdwYOgvTLXoiakL++Sht1bDuY5WN6Y9mXvYje84EpRWjeN/VHDqb2xIwGX6Mcbghrb32arwEV5GIJ6Kk5r8FRtA+zMgPoLPDNr734BNTQp7FVFtsBOgzr6PtJ5fliu60u2iGGJT9TIJKKuLCwWNZyE1mwBD3mjzmG3sVe1m4fUe4spauw7fpH0qlhH2TW4iDowB9QH9d828wlzUFFDS5nZ61HljRr69KSmSKwcml0hQl0Q0v4JWMPiK0tvjAOtBhJ71t5mxKL2BeGNeg3Nw8xBoC+LDbZJcAN0GJOA9nXflM17QgNqUH9zYBjloKLeeE6v/qi/4D0JB8EfFBA1dmuLLye+D80jGidnRA3NbauFxqMGXj3BOZoUeaO+2O/LfNMJQo1kN3QVFefALU5hQL3Dc7JNHGrgtHIxD7xRY2e4r7qGZEad2iJrn3KJJXtc9Yk685zM3FC7dI/RUXcDhBG1zf8zqHIYOB4amIL6M1s8QBxqOBLZV3LeqHNor/qr62pm1E7jXu/e9IkKYFALh5B3DnX176Pe2VA72SCFRyxZwKIOfjVqaUftMFtpYiPMJf7EVv1SqJt6d9YBpJdlukoMJfSxF/2SEe54/cCx2jN+TEPCNi1ev9QY/WR7poCOshTN8RyVywPnbvo21MDbZPXa/y+o9a0aL2SMjjJNbNL1fM9xVxaH1d2A+dKjhna1gxH//9nVcLsokN5aalCLABUbyD98nWloo7gGscGBl0ENh1i7P45FDTawDJvlr6P+gj6Qta+KGUUtOhLEkcp2Sbx72gftren8xqAuv8sHAv1Wtn2z2QuoE1+HFhVGfQvLwyMTO45i64OJvGFQQ9eF3aHPol75gvBGDbfmXFa2RAj1PfoqRCEXItX7knFEBdf8GdQHYOw5vEGMdaLCWtgnWP9dGM/NS42QZ+9hbeDoVnHUHzBFgYDc5gSD+oRdujaxuzDQm2K39vxRgyu49EAi5K9+2nUJHhm0Iyl0mPOrHQZ1Dq09e1NhUcNNVvu86I8a3aqzH26Qc8yeFgQwIWiU+lMMaojOYTpjUfvOWv6oUfd/4fWAfCQqNph1zmt4qoB/0hxqGFNgH0FY1CeI2rqIeeE0Lpq+/EMYedSrwD41qgOYaW+QQ70CK3ZDt7gr5lDP/MKkYBtxQ43CxJ1cnkCGUHa85NY4r9WYAJNdzKFG4T3S0lRgYB5ADZcYtokRhjq6od5CGi7LfyjTAY01NkPIkwSoDWtKFjWEZ5nYt/DZA9TQZLK9/jN+ATXJiOJrWxuPHZGpEW/rnt8cQFBUgXlxHqIzJnBjHNIzj0VoT9YRNTKAheZcoFFG1CEJVsDPQv085T2ALGrsxjFsHK/w6UyIGnVBwVuOOfY7uB7QwM3atvN6gOOh+YjoKcWlwycJnRisAQTj/QFq0lQ41nPinIeoQ7RPwlrpJ3LM2hU1cWLgk8lAqwql5bAcfMZnASW8OIzj5zwDLbRl4NcQQcE0R01iFhRZ4xhsmJDjS+6H6Ygbkz3VNsvXsUQnam1nzElkGZgaoe9Bb1nPcSuCqMmxZ3kkpeStbp8Yod6muKCY9pDlQrMP6n5ElDwmzSHLa4U70OL6scLaO3MCjOJDEwzttZszOQGLGj/Z3xAyWyq3eCou+tA0HC9G9jiFbFpluAyLWh8U5H7wWZOSQ8oKPdG8qJ4VFopbyIo6xKtGYFCSASZWbi7cf8Wae0OoSWsMruneqnK5XJb1OXY+Y57TsJjut/GuTJbLtt41bJDbe8f5+4tkdbG/puzbF/UCVFjJ6WFPvTLHB6uBqwV3KSHTY1W263V9WcT61oiHdO2Ou7hu/0qWc6A5zk8P2w8F6RJIPOSTpEKfr6jfrk570UQVA2uHhELYyQcCofFx4+fN8YGSZPbUZDxwEQ049Q2TuOsvpl7pC3nEvbukycJTozjnb1yaoj7ptoLt0sT2vrav7YV65R29J+4RLk7J30xT45YkwLCJ2oRzzxJu0qDObSn2tPLL3eTP+o7LCXWIcapTo2YIsVyZmt9MohuzdBHroVf04F2+yd8888uJe9iFW/ZIYuSoW1u67E0m6VY6G7+wv6u0hwOIweQg75SGJLuKSfJxOt8xJyrGCZzXyavhkYoOdBFHBWda/TmM0CX/GyzIP1HnxrnzKKtf10y/eNkLvO+FZYhE6xzt+l2XXAWVIiuXnKi5PVOnPIO9yBfSz+oyuGirfHZP/va8ATI1qi6GrenMgAi+uCOiQK05WaeME8dMv3tzclgRlLCXvoC664b26H0hj+pC0jlV+Bb3cLgN0erWhdfLBdUchS9yPvVVTfOEP4tJ65VhbxEqL5na9CWJ3cG0t/hHRW3cYTjs2OrebjzbA//IVqgxfCYH7AbHBELPWbhudBnZ42tG9gT8kK//6Uu3fO7+ldZXZ7gj6q42baNbaIpHWnYedQlS5pvPpxzKbhWuXaIOieRVgskg83HebQJFiO2r4LaWfoRVZ+WjAS+V35k3ivZRfD/De9U1f3/0qJgz6v7Gyudp4GeY9664V5pHnatVtW+Lz9tMqPW9XefcvhAn4qntch31J1H7sOqXrxYWbV1dD7TuorJV36Hhg7rXPvm6FXSuyrZQiPKoX9D2Wd+sitbJ/s3i/g35omb1rah/pVxf62DVhNomEOLzSojiQwC1Q8qGz9O3oa6dTbpPlbrn63LKgNUfx4XK50rdGyPxPz4C3cM//O73C8RC+QfNKWq+q3v8VgG3tsvhO04gAval0xa/XTAXxRtJWgtXz8/HCp5HeaMgeFDa6VVunyUQ9PuWraeOH845T36NwsJ6x7XbrFhYbTd4XvLiWdOfrlMqbeZtCE9zMA7CPJPSFvgMs/K9Y8n8QJ2ksK7a4HGyRv+l/NgHgJpnTHQu7rMWMNvrfoA5qSvMO8Jk37nF7YnY5MBFx+LeGfN/ng73bWD4JjeoAkZR6sePRzIakfK7HCcY0e2SqOX3aDhUIFLuxgsUDq9ti8Nes2CX7fj0gTWr+G+SenyDebtMvkY7jtplBwgB6d+AqxF+54lLnpZfowMMIpFBSeap4oijUHR54lGwjZARGY7mNNjkg9YvIdkhlzJSR9qN5h1e2vgGEtYk5E71k2xbGq3yUf4PXfy5kPIY9TvWZdXv/pMgA+2Joq0mxKr78aJat11JURboCnr7LQo/SvoYu8epAV1MC5OkRR/IbirI/0TtD5frC5SHtsgAWvuGs37aQtH7ha08oCSN9WIKeiGpx09X65En2HSkebZp4kYjPWrpkCTu94mcIjO0aaPNcMIvLTUUdBnp5v4xOQWgB/0kZ9syidwGbOH9GoXfozZ1gC0X9sQQThH9ukPRn6PQ2h6lcMjl2Un7AlzYpKOPsqep5hfDmdk+mN11Eb2qDEHmQojz3w/J/ed1iBotbSHFsfTxVpzKhfY4cLegaaIJ9FWr5aUJlFPT1+Dw9FjPfXt8vomaVFkl3gpqqv1nbbpYNE/qrLnuBKRpk/1p969GfMyLr90ivZUUH6ty75lt6WMUht/UALuC/oFZ8D+/R8+62gFYxwAAAABJRU5ErkJggg==;" vertex="1" parent="1">
          <mxGeometry x="85.03999999999999" y="400" width="69.92" height="26.85" as="geometry" />
        </mxCell>
        <mxCell id="WxpP5CT5e6z0WP_Jkl_Q-12" value="Github-Repository" style="verticalLabelPosition=bottom;html=1;verticalAlign=top;align=center;strokeColor=none;fillColor=#00BEF2;shape=mxgraph.azure.github_code;pointerEvents=1;" vertex="1" parent="1">
          <mxGeometry x="670" y="530" width="35" height="35" as="geometry" />
        </mxCell>
        <mxCell id="WxpP5CT5e6z0WP_Jkl_Q-16" value="local machine" style="text;html=1;strokeColor=none;fillColor=none;align=center;verticalAlign=middle;whiteSpace=wrap;rounded=0;fontSize=14;" vertex="1" parent="1">
          <mxGeometry x="360" y="169.2" width="150" height="30" as="geometry" />
        </mxCell>
        <mxCell id="WxpP5CT5e6z0WP_Jkl_Q-51" style="edgeStyle=orthogonalEdgeStyle;rounded=0;orthogonalLoop=1;jettySize=auto;html=1;exitX=0;exitY=0.5;exitDx=0;exitDy=0;entryX=1;entryY=0.75;entryDx=0;entryDy=0;fontSize=12;" edge="1" parent="1" source="WxpP5CT5e6z0WP_Jkl_Q-27" target="WxpP5CT5e6z0WP_Jkl_Q-45">
          <mxGeometry relative="1" as="geometry" />
        </mxCell>
        <mxCell id="WxpP5CT5e6z0WP_Jkl_Q-59" style="edgeStyle=orthogonalEdgeStyle;rounded=0;orthogonalLoop=1;jettySize=auto;html=1;exitX=1;exitY=0.5;exitDx=0;exitDy=0;entryX=-0.005;entryY=0.103;entryDx=0;entryDy=0;entryPerimeter=0;fontSize=12;" edge="1" parent="1" source="WxpP5CT5e6z0WP_Jkl_Q-27" target="WxpP5CT5e6z0WP_Jkl_Q-38">
          <mxGeometry relative="1" as="geometry" />
        </mxCell>
        <mxCell id="WxpP5CT5e6z0WP_Jkl_Q-27" value="Scraping" style="rounded=0;whiteSpace=wrap;html=1;fontSize=12;fillColor=none;" vertex="1" parent="1">
          <mxGeometry x="280" y="240" width="80" height="40" as="geometry" />
        </mxCell>
        <mxCell id="WxpP5CT5e6z0WP_Jkl_Q-54" style="edgeStyle=orthogonalEdgeStyle;rounded=0;orthogonalLoop=1;jettySize=auto;html=1;exitX=0;exitY=0.5;exitDx=0;exitDy=0;entryX=0.995;entryY=0.63;entryDx=0;entryDy=0;entryPerimeter=0;fontSize=12;" edge="1" parent="1" source="WxpP5CT5e6z0WP_Jkl_Q-28" target="WxpP5CT5e6z0WP_Jkl_Q-9">
          <mxGeometry relative="1" as="geometry" />
        </mxCell>
        <mxCell id="WxpP5CT5e6z0WP_Jkl_Q-28" value="API Datenbezug" style="rounded=0;whiteSpace=wrap;html=1;fontSize=12;fillColor=none;" vertex="1" parent="1">
          <mxGeometry x="280" y="320" width="80" height="40" as="geometry" />
        </mxCell>
        <mxCell id="WxpP5CT5e6z0WP_Jkl_Q-63" style="edgeStyle=orthogonalEdgeStyle;rounded=0;orthogonalLoop=1;jettySize=auto;html=1;entryX=0;entryY=0.5;entryDx=0;entryDy=0;entryPerimeter=0;fontSize=12;" edge="1" parent="1" source="WxpP5CT5e6z0WP_Jkl_Q-29" target="WxpP5CT5e6z0WP_Jkl_Q-1">
          <mxGeometry relative="1" as="geometry" />
        </mxCell>
        <mxCell id="WxpP5CT5e6z0WP_Jkl_Q-29" value="Data Preparation" style="rounded=0;whiteSpace=wrap;html=1;fontSize=12;fillColor=none;" vertex="1" parent="1">
          <mxGeometry x="520" y="240" width="80" height="200" as="geometry" />
        </mxCell>
        <mxCell id="WxpP5CT5e6z0WP_Jkl_Q-38" value="local Storage" style="rounded=0;whiteSpace=wrap;html=1;fontSize=12;fillColor=none;" vertex="1" parent="1">
          <mxGeometry x="400" y="239.4" width="80" height="201.6" as="geometry" />
        </mxCell>
        <mxCell id="WxpP5CT5e6z0WP_Jkl_Q-45" value="iStock Website" style="shape=image;verticalLabelPosition=bottom;labelBackgroundColor=default;verticalAlign=top;aspect=fixed;imageAspect=0;image=data:image/png,iVBORw0KGgoAAAANSUhEUgAAAYQAAACCCAMAAABxTU9IAAAAhFBMVEX///8AAAB0dHT7+/toaGgTExPT09P29vaGhoaBgYGenp6amprb29vDw8Px8fHn5+e4uLinp6fNzc3p6enh4eGPj4/GxsYwMDCxsbEYGBgmJiZjY2NQUFBAQEC+vr7S0tJISEhaWlqDg4MeHh41NTV5eXkjIyM9PT0zMzMLCwtVVVVmZmZcWuc9AAAMgklEQVR4nO2d62Liug6FuZVAScMtUGgpJdMyM3Te//0OpAFiacmWk8Des4/Xz9Y4ib9YlmXZabWCgoKCgoKCgoKCgoKCgoKCgoKCgoKCgoKCgoKC/lbFq9FiMY0VJefxcrKaTqerybIfp8nN7+z/Rd19u9B6ai85+/HRJnr4GqzG97nP+2k7ejR18yum5TZ9kRt0PqAALvqcdm9+m/dUhz7grR9vTK6X4mLpq4gg13B+4/u8pyiEh1tDWNPmjEChaE9LcfUEfH+h7g2Bt26PF5q4EZz0+l8ZHO4MIQVtSZsy6ukYHDVE3ejv050hoPZdmEVS5hHZtLzp7d5J94XQRe34aRSZ+SA4anXL+72T7gsBt3C5xLsng4f/gkG6L4QpbMjSJeeeDNqzW97uvfRvgFAq4DUeHDUAF+mOiJ5u+UhN6L4QsLG5/n/oyeAZXSSipfa3fKQmdGfvCLXk5vJf5MBaBedrDMLwpo/UgO4MAc2Er+GqjScDHOgKEBxC7/olPi16Rm/7xePjaPH6Yv55h68RIPherzy2fkECw/71lpLZsBR7ElYXAgSXuuRtLo2tNL6aa8HmAcszq4lwiQDBqcT0Ql+urzPwXz/g4lucjx2v0hUCBLeirHS5XulyPK70IS1nrtqWhY8AQaPZ2aD0+uU/vzEI8iJ0ksmRuwBBp2g2mWxpEz/Txqs4yQoQaohBqLh0FiDUEPWbPirWEyDUEIXQqVhPgFBDP8mtoAipRgFCDdGekFWsJ0CoIQqhagoUW0P94V9FMk5zJVGdlbtulNczjyL7o9wdwmz7tJy9x3E6T04q3R6DsLBUc1W0fTK1pfW8zpazWb9/vGY6/r6qtW3Tx8xokV1nVSHTbDx9Lbt7L5ve40xqWx2EeHl8jPfzc5wfJKkCLCMXvEaAmIvaVi2JxexnGsHloKOSx9+o+NvUKxc5mfKZ51GHIZ5+qiCs8INUMto0OHGFAO5bitGV1SSE1JLy1NEkkX/XwkPFF23QorgGwqNwV9qbMiRDQAs+ijG1GgQ0CZk7ss5eVbNHVy27PvuJAsICV1bRg5QhMFueN9bWVWE1CA+8opH7V4pnFlqrrA4dkNwQhMX3qjn0MoTWA7zQzpHVUg1Cm1Yz/qX51Zq/xubNMO8Cigx2TghC56qc+GaBIAw97Z0117EZCLAbIllfPpzSA2SaWReEDFdSPZXHAoE7qWe9WJg3AkFhRM4CWeRnWQZkql3X8jsCAXpa7bajU9pkg2DLQx1IefBNQPBovXKKDpFXssjPSL68ASH6xBXU2Z5hg2BvjA0eoxuAoM/Fz7XDT7bzq2V9pWCDkGDzsK61U8kKQTZIuQ4jMGWqD0GxLcgUXN7OfGt5uTS1BcIcJ4Y+19vHSiGY1t6ZELxnVqkihOtzKlxTKuCq+mZwHvXlhiDkJO5qBpfsEBSZkB1iDCtCuLxKT1V+zSyj5NnZ9O6EIDxb1fiyFkJrzHYWMnUMe1gRwrmOpNrPiTmAOVMOXcMgEgTBUam62qWH0IoUTkY5vjofDkz9oKV3A67huRXFq73svjYwmJeLvIyCF3nS+gW+VoeSXRUgCHMX/8i8PwSVkf6wzd9oYVuwQTAj+3PYOdkKw/ZWUctmWqRwRrMRiREbIyuGIFQ60rSyQxQCOlkhVYQQ5D7ps7LGyuZ6NMc9GMBcl0vgOzS9yFm5t7wZV4AQhLBpI3v0NBBU49yHNHvzgYBmyj3mekRoClBqDdR1QQbn9aGIMUMQhDl8M7uOdBDEF0FxQx4Q0G5S+KoBB/Rw/S+oBTowSTHG0Kw2AEHweN9Rtf7SQtBgwL/1gAACbsJgw0b70jsAuq2UrZyf2MGsOoWwlkIHTZ0kQSHYopIr19gAKXhA4PWLa3n8wJPLXIu7RmJ46QSTdzXa5D/x6Sr1QhVl+UBotfqO0BoKJ+khcO9eHu673NFMpFrWljSCEehquvjh7+aO3PKDcFp5p0lhhkAH1UPg1sgSDuAz65VUi6/lVkGoG6ooyxfCUbNMvrVPXlwPgfV6682waV2xssB2eXnPaDUQaocqyqIQVHOPVA6P8d/rIRxoSWum15JdO/8z97C8TwBSQKgfqiirEoSjVRLXvpilVENgBcUdWN9idjG/NAs5+r+zbghV83IFVYRwbDIBA8vTU0Ng8THHbJQdypfPx1iER5MsZcoJoemTCStDOPYG7LnRYmoIrPkc6V3MHuW+GZvO+J9H5oLQ+HFCFIIu4bQQN8ttPnFWQ2BujcP/YCtO+TSF9Q+fB/qWA0LzWeW1ILQinrDKxiw1BGrfQEKYoS4dyBfogSpsMHL1BMfxsf6qBwGlDR9ICTUE+g4Dd9cUXQHP7z3zrYXrHx8TfCGANSziH1WG8Oa6Nn0B8nun04Rfng/U0nhHDVOoCwHEeEmeJHPc79sTfvs+kGqe0CyF2hD4ojBxHtQQKM6frkvT8BEcE1wjC5BmxtzEgtpFtSHw8AGpgo2f0qZ0X++I4c8b5vbeUfMUKAT/uSCzR3Tlm+ZLSRBYSM4RKmZ5HXkXZPME/6C/Lorq/7qKqg+BraFQc0PHTwlCn1bk2AvBek4+GLEzpf2nVgwCDg40R6E+BPbUFAJdqpGCX2zwcBymwexg/s6z2JElbVsQg5DgjLTGKNygJ9Aq6LK82CosIme9Lk/RzP/MEza8d91yCDg20BgFB4SxO+2eJQLRIYu+sV+wmhZ4eKslYSNwsYjJVje93UkAQci+ayiaaodwettck3Q2Z6amPCP/Fz13vkJvuSx3jYvG5gkvVi8LxPcQhJtSoBAM1+b7Qe0LGPzMSBr8ZM8kVcXb1WLP/7DChRvEk2FtD9Bv/2YYIASBQgNJkHYISbF18NMWDeaJWLQE8y086hJNCV9JvkQ5+BYC2awt0b8ZhOha1otCPOr86S22zkGJQii5NtF1oPTJRmImn1kZcZgBGUNC+wF35bJ4AxLwJGe38OxIVxEg+FJ4umys6jjWNGQIRph6JyywgExlBow1mGhIUSoq7AvoAzOXf6LsevwWXXA9GzM6CYKwd0IIwxi12OfXIoQuce97CAPao8oWmbkvKU6F0WfEerw3ozyDUjOjxO1XniVkrAyWe5wIwYcCieZaB1YRArfPX1viZqQZuCO+rs6CR+21FEqAW0QOxCRN4C53Vy30XN0uMaSlVqIQDtdfYgpgVsleJ9ucQoKAN2t0JhfrlmwzWARs+Ad1DYX0NRwg+Bidu2HUH+CDBibuWtr7WdEFk3TC40PXD/0xCKWXD+8UYRTAfiXLijmFUFSX4cc46VdvsBhmUh4eSvuEqcT7p3Q8HqdxHL+XB2rxsxmfWefPRsz+25lXxKBOOjysH1jPLHQGad3HjClQa5PxIuIcVYLg+L6gRYi3a/fhS6ms74eUChH7xmKBOnUUEISvzpkUoEGUXSQIoWJLtCXHx5XNXbbW8ic+LWLOT4V9uO3L3NBxrIKCAiwie0i4J1R8k6QVSddxIcZ77LkT/6Q//JJV+vLZlLoOGMH7lsqzezgoyfZIGBPmIJdFIcn3FM6DOMsYVbu+X1PC6C0bOAVdTh9zHrXjpIBzdX0heB7yUUjMQXdsbjbdN9+tzB8wLIBSoqz6qTlWoRA+w+dKAUKQV7tFCBU2xVv20dptNMn89fu6m/RBAU8Kn7oDRgrhvWMXCvBxgdEUIJTGlzn+noso65FgVhtNjyFMPNrvUwyPRT4WqTzHrH4Q4ZkC9GzkMKIFgvobwLkOjgV163jLGlI9rloXL/Vn9hgGUXUkJ+7b59tB/5OXNawQWl31EVyZM15r61d8dqE8Oc2x4qTY+HvS2hzMdIfTYgqFzQG7Sy0xPDuEo2XQnVmjSWmw1AT2EIwVxjBz7p/UHEbQHpJGVh7TjF/Q7/GNx4PXsI5vuSDYNuVcf6TbyLiU4gX4LVk6RoZn1cefnf4Fj9Jrz8rG88pvCl6bLdwQTjVmtqdwLVmUJDlJQnLLk2Ug2ai/v72ynRb0BtwJ9YHlwOi0z2M8gW/NocpIDYIfFU2EoXI39dtKuoLtKm9tXsCp2/Oj10bupTTO7+H7ycZz8RGxhd3l/zM8JPthsul7v6x3i48TT/fmgUObxbLCSfrJdkBBbGxNOl4NjcvuBlv/bdzRZPhmGsOH490LhUmb9C1ZP32q+Kh+cX/TIlBw4J8IrKck7i+326dZnNaqOErj+H05O95xOtZUNI/7T9vt8ao1t9F3u9FR3Xt9lSLpTyazpk7ACAoKCgoKCgoKCgoKCgoKCgoKCgoKCgoKCgoKCvoH9D9E6J/OuGjdjwAAAABJRU5ErkJggg==;" vertex="1" parent="1">
          <mxGeometry x="74.23" y="239" width="83.57" height="28" as="geometry" />
        </mxCell>
        <mxCell id="WxpP5CT5e6z0WP_Jkl_Q-53" style="edgeStyle=orthogonalEdgeStyle;rounded=0;orthogonalLoop=1;jettySize=auto;html=1;exitX=0;exitY=0.5;exitDx=0;exitDy=0;fontSize=12;" edge="1" parent="1" source="WxpP5CT5e6z0WP_Jkl_Q-46">
          <mxGeometry relative="1" as="geometry">
            <mxPoint x="160" y="420" as="targetPoint" />
          </mxGeometry>
        </mxCell>
        <mxCell id="WxpP5CT5e6z0WP_Jkl_Q-46" value="Download" style="rounded=0;whiteSpace=wrap;html=1;fontSize=12;fillColor=none;" vertex="1" parent="1">
          <mxGeometry x="280" y="400" width="80" height="40" as="geometry" />
        </mxCell>
        <mxCell id="WxpP5CT5e6z0WP_Jkl_Q-22" value="" style="shape=image;verticalLabelPosition=bottom;labelBackgroundColor=default;verticalAlign=top;aspect=fixed;imageAspect=0;image=data:image/png,iVBORw0KGgoAAAANSUhEUgAAANAAAADyCAMAAAALHrt7AAAAw1BMVEX////zdyZOTk6enp52dndhYmJCQkI8PDzybABFRUXyagBKSkq7u7vo6OjzdiNBQUHx8fGampqUlJTm5uY5OTm0tLTzcxvzcRTJycn39/fW1tbycA7v7+/FxcVaWlppaWr+9O+mpqb849f97eX2oXX1lmL70r/R0dF8fHz0gTr1kFj6x6/5v6T71sV5eXn4tZT0iUyIiIj3pXv839H96d/5vJ/3rIf0hEL1lF/71cMrKyv2oXb4sY7zfC/2m2vyYQAlJSWYM4IVAAAQiElEQVR4nO1dCXequhZuqWVUPFUElapYp1q1dajae271vv//q14GVIYAAQJoV7+1zlmtDSEfe8jOjuzc3f3iF78goTVp9B8eGs3nogfCBu1ar1eC6PVeO0UPJj0qK8wGo1dqFz2glGg66SBK/aKHlAplLx/A6KHoQaVAx8/npmVUIfEBjG7WjlZEPgBFDywh2mQBARHdqPeuBQmo9F700BKhFSQgIKJK0YNLgkkIoZvUuUYgn1LpJj13P4RQrejBJcHDL6Erx4+zIV+gfcFternnEEL1ogeXCIGhXCHB3GAznn/s/h29LSHeRsPdx3y8GcTpIlDneuWsRk1C62W2+1JlUTRNQwdQIeAPhmmKomy+7WYbi66r9AJqVep/ktHAGMzWU8DE0NX7QOi6KcqH4ewzuruAcLs3oWTTKHFcl+vWklmcNRvqshlGxQEVsDKOsygN7BNXrJRr8AbXfUTocqtWXDaf2z01mYusTPnw8RLa7xMhp7CiG9LKpoModWOF54PtQTZikjlJyhDV7zDl88mo9xSfD6REb0qzZVI2J07ydG4Fdj/puSjRTqll7tFNiNKRDHaimYaNzckUh8Gq1yidKPV6DVpjcMsHMqJ5Eps3WU/NBkOXl+PA+7Qbtdf311qDPttT9hF67EVeNJ6KrOhAqOL9jHrAUXj18XnkIvwCoJNe1zKjxPkJdZthF2z2zOlgSodgxYuBPyRCjeD2gy85CzqY0jJ8ZsqC0I6ZKyBSkodWakYkQkFubqwbGdKB0MXUptQjOAVyRGeNMtM2B8RlrHWGH32/234kNhwz9dTB0OV5KkIVn86RTego50IHQnyz0jCq+UREaPSi5yMeDN38Jw0jrwURooxtHtbjgCrvUhB67jplxBFc3EjMlQ6EuYy9MLug9X5m1O365WMdsnbWJOg6xUI9EM0S1wXgHgn+YJNJpBMNVU4VCj03G40Oaf6Z5Ww+DsjbNIwCsM3PW/shpnENZOzydwcuRkfGfNbF8gHO7ospn2F8PqquGyhPiiDLsv2TaRqGHjfZBWC8seRjxiFioGzv/mv9vZ2NF5uXz4GFMfh82SzGs/n3erQ35KjsaoaMKPUNUIFEhh8zqnz8YDPb/rs3ZZE2OWmMGPH5juYDs7riYThfxI/4rcUc5cIpWJlDJnzmEf4aktGP802KCAVM2vOjHk2Kifceh/KBZNaR+XY6DMZrVTZDg/mUKySIl2A+qi6KXzQ7IjEwmH2JYoig5FTLCQArMMkLNGSdtncyFmsjeE0sptSGPblnIJv1hs3widiszQBOqpqq4yFpvaCa8nHBaOTBWBxlonboaaajGcGAdHE6s1iNOhStGTFxLn4k7nHg46Ma8jBLVfPiZUjYd5ITj+Dg6Us1zQ+L4XBpYH2YXs1T9YR97QwPHTX9LJAEs3vPUllPFgNtZDcdhjs3cTE7uCklSxOrzj5MvTg6EDPVpXiiFb8Lp8IZYhaL+niYm44BJVA6R8ijyutUgScrOHdw4ieCpicJq+KSbbiWHIO3synF9nTz0xpIN4s1HjfGxklIxne8K098xJGVycgSY3jKDsqxolTbI+gik+1bpljYKyY9ThrIjnlSbs9kBXvHIE4EdNSRcyveV5MxR2qnLqkv+JSRN2CwtZ4RPlX4xEXqNcwINDf2VoYjSo03E4hoT9kYCkhkkzHKDjuZXkTAguTki6i8ABaflFYEXJx8TZNpEP6RVZnKzHdG6lxRPngR6WJUUc4+A8IGLyJNuDD7L8+kQTp8yhQRnXEb+obx8l9kk0UxeYOk+CfSfd2OvmHc2nh/8Ytf/OIXV4wfUoQIo90vaZTvOd0EOEFSpJt8GToAXY7jfgldM34JXTuulVAr6dYYA0J/6p6bP9cgLt8/b3WaAJ5vPHceIC6/t0GTDp4QK/0er2mCUmo4X4Ct9xsAvlfrK+UOALpZs1wudyAhZdXsdM4fO+7Rf+8qSrfU9303vgyBfmq+89pfz/vhFU2SJO1y6z9/q9Wq5vlGek0AjQTH7xpoA18qeH7VJIWDUHjNWS5E4yWJ/+t9yfdJ43n+LxphSQA/4iurCJrrxehOV8AdK5LgfSlQqvK8Bof+KIAmVQ/higCu4h2E0O9eQhLUjcvvfQlfU9YwGwxJuvT9hK7wflMftla66Md355XoasfzeH4UEBkFc3JzvXsEn1WBCAX0V3aEGnd9DY2Er/L26LSz+CvoT113N21H3yXJHi4aNwC/crSDf+GF3moFBAVv4Xq3tgflcvcs4KuZEGpI8PE3waAVofvUaTZW6L6A0dn44F05oe7vRsBG/FR6f39FjLqlHsLZRusaUjX8svRzDf7GO2WECcH/FV4QfDaUiBAPjRmy6trdtdB9OYU7NelUPWoEAHtRXj0f+LxcC37KX8qUtasu2QPhAioSlLbQ61R8HjYRoTKPBs9VHQ+uiRjx5+eMRMY7e5nArgXnA+VJhKB1SU6JIIl13Q24V6ClxPoXyQmBZi4BdJBSa6cn9gCvqTa9vSjOS0iE2lCR3e/N9UE74dIT0lTwj1woIQUhxfMa/EpxXorcgkvBkBK6qnCQCEHb0DzzoOTqCZuetw0DQt4u/yAK54eL3IJ2UfEJsgXXm/MEQlC/FG9NB3j/qpuQFFQkK4UN+UpJIBFpJ01oVt09wb96hEogdJriXID3E87uGcYXXgfKgpDvtpjCxWwkl8CQxlXd1xAIQbkK3gIIsOPL7RSfu2FDyP+M0LWXASK3cG6F2AruCwiEYBfVeqXuRAXNe+d2JPtlQsgfY/Mu5UZuQTrlQKDGeRXfT6iOXGVVcENy9cuFmRBbQo/QTC5TSElxXIYE5AlT/ISQ5yDi0i/n85aZEYIMHP4V29Tk8rMntiMQ6lwXoZ5bQji6xgSRxnmjbz8hPCEIBGjnB5UjIbQCdRCCPtieigSnRw8m1EAfVZ79qJwvTkDI+yhpCVU9A3zWTk8HqpIrbAgjVPW2cyMeoZbgu0kQIV8s9ezpyzYq6GHh7F71laMJsCEhPN2dgJDiqRO2UkiEfPMQHo3zY+QKNDA+zd1BICG0BqyGF3+KRwjdxBPtoi6cc3NApICjU9dHdrwKiRHGEDCx+nUzDaFHxWcf6LH5YznvZI2DU7dwoVsAQR/UWc1f0QnZnHv3AUWehKbJCSF7cT99NEE6pWY7V88Ca4VCHffcidyCcOePSxEI6o1WgcGBTQJC9tTmaNJAn/gJcZxLjhON8ysrXn/CqI5kGJz3VgBdpKVhFXRjEmrhVM7lufVxeoVASOk6GGG91LxpQfzEiS7BNjqPTNvo/kIIo5iEsOZwkl3ztd2rAi5EQgqnSOfHjlNavL+MIpYCeQRlrA1u/19DH0quaiLtlcN3hhOq+wghtUcJqtfVqwJTZApi7QjE7AUeVKRuv9lud2oSfgqEGjp9O8FFnFswIWHV7z89nqVdkuz7w67bk3K/xAuCY4RxCd01NPup4lSgAmYWwa3rdqTwiObbqlDl8aBJfLDv4xRy9fw+ZqTAdPSFccmOUCWUI+Ylz8KDgpBnLng4MUKXwgJ6yBB8hO56ztjYm7E9D08heMQTutLpcueE3HelmLF60xJqe+MviI5UtVPwEk7BoyS7n9BdQ+DPDR8DCinCNLfP+Z3xao9dcbmTeum0CYD+xmtdxwgFmNoP3DufeFIZpyGXJE3Qqr0+Nli4geFocwlOWw3UUOo9BFaxhUMKCWbaK7haUEp9t2uo9x/tZUO1u2q4Op8AeDd8PGMj3q/1HFjy1B1tt0I3vNC8poQ0CAbMLFTiljDuuzIZlAhaPpCABBRSJZE1UOwUsQDxIQahB1/+N2Og+1FWFT6DnhCKh4QcC83jbFloIVACqAmhSSHYxWUA7BfjXkVLqI7mqaC0egaooNA2vkZQEiqjCbqa2xcRKk9oLzN88UEEFaFKCa8LczoIYNLjBDsIjF+snoJQe4VDAMWbXMwKbTte46NqHZNAQcheRRHj1UyAEwCSkOhsOQpCOOsuhKc7mAJ+GaTbT/YtncZfEGT9L/xaKH0pz5NOGuVJ4pMeWig3G96mpnE5Bjw5oH6zh/BdI6yiBxATVlQDxsW7soYV/b56kvolxcGwIpvs9Og2V4MpRbXQgXywMh8IIyypaip8GfdWxgNhhL0xpWm2EXWdTY3CbGFNaQv171VVvN7iECcMVJ22eN5YTFsROgfAWtkm7UvEsAwbzVvWBQLWylYN2tZjWJbFZFmblzVQbVyTvggMqiOlq9dqSNYelh2iF9Dd3UK8v+I6OPZBGrFqXC1xdSNxaWU1quSwD9JQD3Eu+rSLsTE4koUxFqeDNOir+iD8e6oSlvpIFqZoHU+1vuKWO7XOJan1KyqJM7vUPY1XvAxde662Z95fR1WPF8cRW2b8aXJ5qR/I5giqlLCOjnMn1Pv4HbjK0OrysVhTstxHbCUqRrt1Vd7X5WFxlKxv0VVE1lgn6sZTmhpQKibf4KWTSOFQR97i+7r8lX+RlsFa9tbIpiuJRYC/XD2sTc10uFFYEE6qTFFFllA/XDXNXV7GZG3vCQW3U1UQnxJqkquGvMxDTOMR8YxXVU9TFtdnRicxycdsl7SbtRhQtD6xAWEsgk5J0E3xOM6ohPAm5FiB1LX85sHnjABOb3PW9mTNjmbIwQ9m+rM51mEn2+imfL8eW+l5YCy+p+FHcxgsTiH6Cj9aTYUHYa9T5/gH4++9LEac9KzTFgINxzLybEJ0uM3b9zgZq8FiOzJEM/rYaj3WIjUEU6rTFtFBStPhx/jFouzX+hxv10sTCIbqBCJVpe04Cq0D9fmR6HwoWZyO1h+zfzafFmEI1mCzmG13x70uxzojSqXYOqGFRc/oxEtH53fBo7v0w3S/hNhPD8De0GFeJjzGK945XqrJ0qHGZuQciRPJezEYTxB0dpQZdGb2c8ayiIMxz3ymzPnc3R2LO9vPpK8VHgffRZ0mmVmt7ILO+8wwMfhi5O8a1Jg533iwljEOYWQC45Dx+vg7X7WTsy81v8nxHO2cDtI45iWk3LanxuHnIzJCrntTw8yFpIpfVn58gCUdsnV3hp77FyXmYnbBXTGbbK2dP0vLiM7QKoAPgDXMgJIufxX4pcoBa0qATsGbhYMdMQOdCPCkyiv4ymtrqwafBxsDupj/SZVBWIzIZ6fGEs5bLo660p5MJu3ot1as+T656qmGeNjmsek0aTzZqPUnkTsNg21EYpoMmEn+yMNyWp3a08MFT7Vy9OaJNRuJlGlQTMYQxS/mGxhktJ+cdDClgLfS3XiZj3Q5MiOKMqzm2za3TeiGlw6iRPvSzGD8MVJF0UQJUjcRwATmwPXEqf1k6JP4AEZx3nJsfY7n38e3gwlzv6L93+HtuJvTp/NZIYAPQLL3Ni0MtoOMAaK+xdS6a0I7mA9gROUZrgthfACjqzg9Nw46EYTyfN2RCcL5AEZFDzAmQi0IEbqxdx4bEXweHm7M0UUJ6NZ07pmCUOLXkotAnYJQfmUrGCDSJ9yaV5j8NEI/TkI/zoZ+nJf7cfPQz4sUflwsd1f7WRoXvR6KWw6seEQQKnp48RGeU7g1C4L4aVmfkLxcrEzjNYFF5vS6kC63fY2Y1Hy7DzfpDy5old37Q0+dm8swetGa9E87eE8UO3i3gUp70qTZY/1FZvg/XddyAWqutWgAAAAASUVORK5CYII=;" vertex="1" parent="1">
          <mxGeometry x="620" y="180" width="36.1" height="42" as="geometry" />
        </mxCell>
        <mxCell id="WxpP5CT5e6z0WP_Jkl_Q-48" value="Azure ML" style="shape=image;verticalLabelPosition=bottom;labelBackgroundColor=none;verticalAlign=top;aspect=fixed;imageAspect=0;image=data:image/png,iVBORw0KGgoAAAANSUhEUgAAAOEAAADhCAMAAAAJbSJIAAAAyVBMVEX///8EbqsZRXoVkM8Aa6kAK237///3/P5Wj70AMnDd4OcjhboAjc4Sj88AaqkDb6wAiMwAZqcIdLEQh8USV48SishhrNoAYqXs9foVTIMZP3QUUonM4/BTptYxmNEAXaLY6fTE3u3m8vgAg8qqz+VTmsYKZqEOXphjocjI4fEzkMmeyuR+u+BGn9Km0Oi52e2IwOKHttWTv9odeLE/h7l4rM+gwttxsts+kMJjnMSz0eZ8stJYoMtemcMAWaEumtC4y90AdbsAPX7+vLHMAAAIIUlEQVR4nO2c/VvaSBCASZML3pEEAiLRogasFc8PQFAorbXX//+PukQFE8gmM7P5WPrM+9v53JPLe7vszM7OplZjGIZh1MQcNfCMzKpfG4F54OA5qFf92gjMA0PDYrChUrAhG6oPG7Kh+rAhG6oPG7Kh+rAhG6oPG7Kh+rAhG6oPG7Kh+rAhG6oPG7Kh+rAhG6oPG7Kh+rAhG6oPG7Kh+rAhG6oPG7Kh+rAhG6oPG7Kh+rAhG6oPG7Kh+rAhG6oPG7Kh+rAhG6oPG7Kh+rBhEvv2XQxHazab7Q+Cf2qGf2pu/Snyr+2V4fW/nZBu17Z1Xbftbrfb6bz/ybL14I+RP73/a62bqt8agR86IGndVv3WCIYdvKB1tEdz1Duy0IL23bDq14ZTX+BH0G7tkWDtqIUW1PV+1W8Nx7zBC9r6/R59BGv8py+jqxZhGT2t+q0R+ITfoHXkVf3acLxTwjJ65lf92nCGp4RAuE+CJkVQH1f92nDMW8KPcJ+WUXOCH0Hdmogep2CWOrEJceJOFOnr0y+lvj2AsUUQfPFFj3twDMUSOUoqY4sFx+eaMVNKsf+CF9RbA+HjZoamOXOV9htnhFWmdS96mtd4rWM58zIVUvEogtaD6HH1mfNefZsrsqLWCXt63VoIs9FHd1NhHKmhSBG0z4Tv/hStoX4vU0TEhJDKpGSjT71omfhcgbB4T4kTZ9eixw1cLUazckVKINRbwtf2G1vHAZWHRf+CIGgJ022/4ewc2Lh+iT67b3RHEVyIVpn6pbstGCgu/TKV4ngkwTthnJgmCAYL6rKyMkddJ8UJ4fOmbvKZnLssUSoGZctr68Js9GbnN7im91SmVuSNKHFCF2ajfjPlVLUSxQmhNJpySDicC4cwnKgVKA4oxxOthehx3kGaYDBRhZO7KAZnlGVUXPy9TBfUjEbJkX9ASWWsU9Ge1lz00gWDmFFucjOkjKCt+yLBp2aWYJi/lbjnJ+0I7Zaw+DtIW0Y3uN9K2y16lENQWxen24JIv6NY2oZ4QRjBlOJvepyIKT6WI0g45Q0Ehcmat4T3T5UTFinV+2AZFcaJZWK6LcAR1q/yg5KrpVUtHjCCmtZeFS3oE6r3un0hzEhWbZSgZrQL3kr1SRsm8SHhSsM2MTozv0hBn3AIGhhOREdMQ7RgoHhZZOQnCYpb1rysbDQRo7gNMSmV0a0X0fO8Z9wqs6awyG9OCH5BnPBFD3ykCQYTdVpMD9WEFCfEqwwyTkRpFtJt++WCMIK2uPj7BbCfEFJEtb9P2TAFy6joeYMZfhn9oIBSuE8StG6Fa8KMsoxGFXOO/F6XJJjSsjaQVXRyVaT0c4XZaFpsXklN05wjf522I8zo6Fr1JBVzDIukxuaU6vY7Y8mJ6o7yEiRteVMOCTesZlKGWi+n3eKK0M8F7Mkb/5RTbOayW7ynVO9TyjIxBm2piWpoOTRvUm74IG6IYHfA24qOdOQnnfJiboiszuUUZav9PqXdSUfdEJlKGWpOw5cRrNMivX6D2N2YsopLmbB4SxrBFmyV2TDNPJZJRaJOXF+QAiH+hsh3uVHskZObB9IIEm6ImN8l87cpTbBPKY3SLlDUR/T9/qsi6YSY1M+l2xZt9SZV3TYYlOSGuKfXiRWU+khOEb/nJ/X9gpO1JMUfUhPVwZ4Qe6RAiI4TMX5ILTfOHLXAUS4rhyN4JyFY80Zyis+YmEHa0weCvoxhzZOcqJfw/xSlYS085pUTrMmuqODkxqQ0NoeG8m1L3rOUYvMJlg9fU/TSbohgFJcyikYTtCEmNTbLxIk44MaMRH4CwmKfOEXFN0RwZLXwZYxi9gnxkHJHK/WGCFpxLhM0nEbW/+kX2p6+++uf/JCLGY0MQ1o2al/9nSPHXyUO3oxZhiEt1l99yhUZRSerEE5q/W2f5Gv46RNd0c2KykPCUjrL209mFNtZewxCzt05zt+QrOhcZkYtdGNetwC/EIOkCGjTWCEF7avcf4Rv0EYRUM4YIsv4X4vxCxUJo2jM/UzD2hHK8GtBI/iKhlYEfZoQVSWdFSlImKgu5MwU852gQpbRCJ+xE7UHmKS1GtywaEH8b/EcIli7g05T+7BoQewoGllp9xtj6CAWuspsFDHLDbCXH/pDLEUQp+jCKt/AS03FBcI4J4dgRaMBK3zDvodklzOCIYfQIXQegZWG+2xDu/hl9IMT6ER1oFdqAOdq3c/lCQYcgko38AOoevan80qIE3FFkOEBuEEiq5Rhl7SMfgCaqM43qGDtJsOwWbJfqAiYqC78dNZLj4gFVC0AXGUOYg8sWKulLjWdsqfoGyeHWYoOwjDtBLhT7jIaUcwYRQdzW6gvnqYlx4kY6Yqu8MNFCaS0XB5WM0dfyRhFH2EoLtYUu6mXUTSWqG4MUSmjXaVfiFgR2folqClWEyeipIwiri0q+RJQmek2VhHbFWUmpaZlVC0AJCs6zyjBpOK+XVh1G0uiIvoDhAnFmrI29dkklVFddHfijmH+h4R0EhRhdcQo2xGx8jgRY2eiAuuIUbZ+iF0FltEo26Po4r8DupWaKia4o4hKSt+INdZUmW6LiE1UB1hHjBK7VanOMhohOoqk25aR1FStVWZN9OwNdKq2zccX2ardT4iJKM4onZ+bHZQK2WgyG0WD9HXzdWqq4iqzZq3oHBAE18V9+7Oic/SNN0VEHTHKMIyI5Rd/kbwqwg63d7nQVdjzZvA6UV2aYFjcV3UZjRAoYu4hxBhbnapfH8Kxgd85veP/9/uvfeA3pH+dYRiGYZg/mv8BnBIhu5o6Py0AAAAASUVORK5CYII=;" vertex="1" parent="1">
          <mxGeometry x="940" y="313" width="47.5" height="47.5" as="geometry" />
        </mxCell>
        <mxCell id="WxpP5CT5e6z0WP_Jkl_Q-50" value="Versionisierung" style="text;html=1;strokeColor=none;fillColor=none;align=center;verticalAlign=middle;whiteSpace=wrap;rounded=0;labelBackgroundColor=default;fontSize=12;" vertex="1" parent="1">
          <mxGeometry x="960" y="520" width="90" height="30" as="geometry" />
        </mxCell>
        <mxCell id="WxpP5CT5e6z0WP_Jkl_Q-60" style="edgeStyle=orthogonalEdgeStyle;rounded=0;orthogonalLoop=1;jettySize=auto;html=1;exitX=1;exitY=0.5;exitDx=0;exitDy=0;entryX=-0.005;entryY=0.103;entryDx=0;entryDy=0;entryPerimeter=0;fontSize=12;" edge="1" parent="1">
          <mxGeometry relative="1" as="geometry">
            <mxPoint x="360.39" y="340.12000000000006" as="sourcePoint" />
            <mxPoint x="399.99" y="340.28479999999996" as="targetPoint" />
          </mxGeometry>
        </mxCell>
        <mxCell id="WxpP5CT5e6z0WP_Jkl_Q-61" style="edgeStyle=orthogonalEdgeStyle;rounded=0;orthogonalLoop=1;jettySize=auto;html=1;exitX=1;exitY=0.5;exitDx=0;exitDy=0;entryX=-0.005;entryY=0.103;entryDx=0;entryDy=0;entryPerimeter=0;fontSize=12;" edge="1" parent="1">
          <mxGeometry relative="1" as="geometry">
            <mxPoint x="360.38999999999993" y="419.92000000000013" as="sourcePoint" />
            <mxPoint x="399.99" y="420.0848" as="targetPoint" />
          </mxGeometry>
        </mxCell>
        <mxCell id="WxpP5CT5e6z0WP_Jkl_Q-62" style="edgeStyle=orthogonalEdgeStyle;rounded=0;orthogonalLoop=1;jettySize=auto;html=1;exitX=1;exitY=0.5;exitDx=0;exitDy=0;entryX=-0.005;entryY=0.103;entryDx=0;entryDy=0;entryPerimeter=0;fontSize=12;" edge="1" parent="1">
          <mxGeometry relative="1" as="geometry">
            <mxPoint x="480.3899999999999" y="339.7600000000001" as="sourcePoint" />
            <mxPoint x="519.99" y="339.9248000000001" as="targetPoint" />
          </mxGeometry>
        </mxCell>
      </root>
    </mxGraphModel>
  </diagram>
</mxfile>
